<mxfile host="65bd71144e">
    <diagram id="qrRQszA5JXXV7SYuZdpj" name="Page-6">
        <mxGraphModel dx="1610" dy="1353" grid="1" gridSize="10" guides="1" tooltips="1" connect="1" arrows="1" fold="1" page="1" pageScale="1" pageWidth="827" pageHeight="1169" math="0" shadow="0">
            <root>
                <mxCell id="0"/>
                <mxCell id="1" parent="0"/>
                <mxCell id="e4J6RjBOe4QQsEFrMTt_-13" style="edgeStyle=none;html=1;strokeWidth=6;fontSize=22;endArrow=none;endFill=0;entryX=0.468;entryY=0.005;entryDx=0;entryDy=0;entryPerimeter=0;" edge="1" parent="1" source="e4J6RjBOe4QQsEFrMTt_-1" target="e4J6RjBOe4QQsEFrMTt_-2">
                    <mxGeometry relative="1" as="geometry"/>
                </mxCell>
                <mxCell id="e4J6RjBOe4QQsEFrMTt_-1" value="" style="whiteSpace=wrap;html=1;fontSize=22;" vertex="1" parent="1">
                    <mxGeometry x="240" y="300" width="300" height="220" as="geometry"/>
                </mxCell>
                <mxCell id="e4J6RjBOe4QQsEFrMTt_-2" value="" style="whiteSpace=wrap;html=1;fontSize=22;" vertex="1" parent="1">
                    <mxGeometry x="250" y="660" width="300" height="230" as="geometry"/>
                </mxCell>
                <mxCell id="e4J6RjBOe4QQsEFrMTt_-42" style="edgeStyle=none;html=1;strokeWidth=6;fontSize=22;endArrow=none;endFill=0;entryX=0;entryY=0.25;entryDx=0;entryDy=0;" edge="1" parent="1" source="e4J6RjBOe4QQsEFrMTt_-3" target="e4J6RjBOe4QQsEFrMTt_-1">
                    <mxGeometry relative="1" as="geometry"/>
                </mxCell>
                <mxCell id="e4J6RjBOe4QQsEFrMTt_-3" value="A" style="whiteSpace=wrap;html=1;fontSize=22;fontStyle=1" vertex="1" parent="1">
                    <mxGeometry x="70" y="290" width="60" height="90" as="geometry"/>
                </mxCell>
                <mxCell id="e4J6RjBOe4QQsEFrMTt_-43" style="edgeStyle=none;html=1;entryX=0;entryY=0.75;entryDx=0;entryDy=0;strokeWidth=6;fontSize=22;endArrow=none;endFill=0;" edge="1" parent="1" source="e4J6RjBOe4QQsEFrMTt_-5" target="e4J6RjBOe4QQsEFrMTt_-1">
                    <mxGeometry relative="1" as="geometry"/>
                </mxCell>
                <mxCell id="e4J6RjBOe4QQsEFrMTt_-5" value="B" style="whiteSpace=wrap;html=1;fontSize=22;fontStyle=1" vertex="1" parent="1">
                    <mxGeometry x="70" y="420" width="60" height="90" as="geometry"/>
                </mxCell>
                <mxCell id="e4J6RjBOe4QQsEFrMTt_-46" style="edgeStyle=none;html=1;entryX=1;entryY=0.25;entryDx=0;entryDy=0;strokeWidth=6;fontSize=22;endArrow=none;endFill=0;" edge="1" parent="1" source="e4J6RjBOe4QQsEFrMTt_-7" target="e4J6RjBOe4QQsEFrMTt_-1">
                    <mxGeometry relative="1" as="geometry"/>
                </mxCell>
                <mxCell id="e4J6RjBOe4QQsEFrMTt_-7" value="C" style="whiteSpace=wrap;html=1;fontSize=22;fontStyle=1" vertex="1" parent="1">
                    <mxGeometry x="660" y="300" width="60" height="90" as="geometry"/>
                </mxCell>
                <mxCell id="e4J6RjBOe4QQsEFrMTt_-47" style="edgeStyle=none;html=1;entryX=1.001;entryY=0.915;entryDx=0;entryDy=0;entryPerimeter=0;strokeWidth=6;fontSize=22;endArrow=none;endFill=0;" edge="1" parent="1" source="e4J6RjBOe4QQsEFrMTt_-8" target="e4J6RjBOe4QQsEFrMTt_-1">
                    <mxGeometry relative="1" as="geometry"/>
                </mxCell>
                <mxCell id="e4J6RjBOe4QQsEFrMTt_-8" value="D" style="whiteSpace=wrap;html=1;fontSize=22;fontStyle=1" vertex="1" parent="1">
                    <mxGeometry x="660" y="430" width="60" height="90" as="geometry"/>
                </mxCell>
                <mxCell id="e4J6RjBOe4QQsEFrMTt_-48" style="edgeStyle=none;html=1;entryX=1;entryY=0.25;entryDx=0;entryDy=0;strokeWidth=6;fontSize=22;endArrow=none;endFill=0;" edge="1" parent="1" source="e4J6RjBOe4QQsEFrMTt_-9" target="e4J6RjBOe4QQsEFrMTt_-2">
                    <mxGeometry relative="1" as="geometry"/>
                </mxCell>
                <mxCell id="e4J6RjBOe4QQsEFrMTt_-9" value="G" style="whiteSpace=wrap;html=1;fontSize=22;fontStyle=1" vertex="1" parent="1">
                    <mxGeometry x="660" y="640" width="60" height="90" as="geometry"/>
                </mxCell>
                <mxCell id="e4J6RjBOe4QQsEFrMTt_-49" style="edgeStyle=none;html=1;strokeWidth=6;fontSize=22;endArrow=none;endFill=0;" edge="1" parent="1" source="e4J6RjBOe4QQsEFrMTt_-10" target="e4J6RjBOe4QQsEFrMTt_-2">
                    <mxGeometry relative="1" as="geometry"/>
                </mxCell>
                <mxCell id="e4J6RjBOe4QQsEFrMTt_-10" value="H" style="whiteSpace=wrap;html=1;fontSize=22;fontStyle=1" vertex="1" parent="1">
                    <mxGeometry x="660" y="770" width="60" height="90" as="geometry"/>
                </mxCell>
                <mxCell id="e4J6RjBOe4QQsEFrMTt_-44" style="edgeStyle=none;html=1;entryX=-0.005;entryY=0.158;entryDx=0;entryDy=0;entryPerimeter=0;strokeWidth=6;fontSize=22;endArrow=none;endFill=0;" edge="1" parent="1" source="e4J6RjBOe4QQsEFrMTt_-11" target="e4J6RjBOe4QQsEFrMTt_-2">
                    <mxGeometry relative="1" as="geometry"/>
                </mxCell>
                <mxCell id="e4J6RjBOe4QQsEFrMTt_-11" value="E" style="whiteSpace=wrap;html=1;fontSize=22;fontStyle=1" vertex="1" parent="1">
                    <mxGeometry x="70" y="650" width="60" height="90" as="geometry"/>
                </mxCell>
                <mxCell id="e4J6RjBOe4QQsEFrMTt_-45" style="edgeStyle=none;html=1;strokeWidth=6;fontSize=22;endArrow=none;endFill=0;" edge="1" parent="1" source="e4J6RjBOe4QQsEFrMTt_-12">
                    <mxGeometry relative="1" as="geometry">
                        <mxPoint x="240" y="815" as="targetPoint"/>
                    </mxGeometry>
                </mxCell>
                <mxCell id="e4J6RjBOe4QQsEFrMTt_-12" value="F" style="whiteSpace=wrap;html=1;fontSize=22;fontStyle=1" vertex="1" parent="1">
                    <mxGeometry x="70" y="770" width="60" height="90" as="geometry"/>
                </mxCell>
                <mxCell id="e4J6RjBOe4QQsEFrMTt_-14" value="Trunk Port" style="text;strokeColor=none;align=center;fillColor=none;html=1;verticalAlign=middle;whiteSpace=wrap;rounded=0;fontSize=22;fontStyle=1" vertex="1" parent="1">
                    <mxGeometry x="400" y="580" width="90" height="30" as="geometry"/>
                </mxCell>
                <mxCell id="e4J6RjBOe4QQsEFrMTt_-15" value="" style="shape=table;startSize=0;container=1;collapsible=0;childLayout=tableLayout;fontSize=22;" vertex="1" parent="1">
                    <mxGeometry x="290" y="323" width="200" height="171" as="geometry"/>
                </mxCell>
                <mxCell id="e4J6RjBOe4QQsEFrMTt_-16" value="" style="shape=tableRow;horizontal=0;startSize=0;swimlaneHead=0;swimlaneBody=0;top=0;left=0;bottom=0;right=0;collapsible=0;dropTarget=0;fillColor=none;points=[[0,0.5],[1,0.5]];portConstraint=eastwest;fontSize=22;" vertex="1" parent="e4J6RjBOe4QQsEFrMTt_-15">
                    <mxGeometry width="200" height="30" as="geometry"/>
                </mxCell>
                <mxCell id="e4J6RjBOe4QQsEFrMTt_-17" value="vlan1" style="shape=partialRectangle;html=1;whiteSpace=wrap;connectable=0;overflow=hidden;fillColor=none;top=0;left=0;bottom=0;right=0;pointerEvents=1;fontSize=22;" vertex="1" parent="e4J6RjBOe4QQsEFrMTt_-16">
                    <mxGeometry width="100" height="30" as="geometry">
                        <mxRectangle width="100" height="30" as="alternateBounds"/>
                    </mxGeometry>
                </mxCell>
                <mxCell id="e4J6RjBOe4QQsEFrMTt_-18" value="vlan2" style="shape=partialRectangle;html=1;whiteSpace=wrap;connectable=0;overflow=hidden;fillColor=none;top=0;left=0;bottom=0;right=0;pointerEvents=1;fontSize=22;" vertex="1" parent="e4J6RjBOe4QQsEFrMTt_-16">
                    <mxGeometry x="100" width="100" height="30" as="geometry">
                        <mxRectangle width="100" height="30" as="alternateBounds"/>
                    </mxGeometry>
                </mxCell>
                <mxCell id="e4J6RjBOe4QQsEFrMTt_-29" style="shape=tableRow;horizontal=0;startSize=0;swimlaneHead=0;swimlaneBody=0;top=0;left=0;bottom=0;right=0;collapsible=0;dropTarget=0;fillColor=none;points=[[0,0.5],[1,0.5]];portConstraint=eastwest;fontSize=22;" vertex="1" parent="e4J6RjBOe4QQsEFrMTt_-15">
                    <mxGeometry y="30" width="200" height="47" as="geometry"/>
                </mxCell>
                <mxCell id="e4J6RjBOe4QQsEFrMTt_-30" value="A" style="shape=partialRectangle;html=1;whiteSpace=wrap;connectable=0;overflow=hidden;fillColor=none;top=0;left=0;bottom=0;right=0;pointerEvents=1;fontSize=22;" vertex="1" parent="e4J6RjBOe4QQsEFrMTt_-29">
                    <mxGeometry width="100" height="47" as="geometry">
                        <mxRectangle width="100" height="47" as="alternateBounds"/>
                    </mxGeometry>
                </mxCell>
                <mxCell id="e4J6RjBOe4QQsEFrMTt_-31" value="C" style="shape=partialRectangle;html=1;whiteSpace=wrap;connectable=0;overflow=hidden;fillColor=none;top=0;left=0;bottom=0;right=0;pointerEvents=1;fontSize=22;" vertex="1" parent="e4J6RjBOe4QQsEFrMTt_-29">
                    <mxGeometry x="100" width="100" height="47" as="geometry">
                        <mxRectangle width="100" height="47" as="alternateBounds"/>
                    </mxGeometry>
                </mxCell>
                <mxCell id="e4J6RjBOe4QQsEFrMTt_-19" value="" style="shape=tableRow;horizontal=0;startSize=0;swimlaneHead=0;swimlaneBody=0;top=0;left=0;bottom=0;right=0;collapsible=0;dropTarget=0;fillColor=none;points=[[0,0.5],[1,0.5]];portConstraint=eastwest;fontSize=22;" vertex="1" parent="e4J6RjBOe4QQsEFrMTt_-15">
                    <mxGeometry y="77" width="200" height="47" as="geometry"/>
                </mxCell>
                <mxCell id="e4J6RjBOe4QQsEFrMTt_-20" value="B" style="shape=partialRectangle;html=1;whiteSpace=wrap;connectable=0;overflow=hidden;fillColor=none;top=0;left=0;bottom=0;right=0;pointerEvents=1;fontSize=22;" vertex="1" parent="e4J6RjBOe4QQsEFrMTt_-19">
                    <mxGeometry width="100" height="47" as="geometry">
                        <mxRectangle width="100" height="47" as="alternateBounds"/>
                    </mxGeometry>
                </mxCell>
                <mxCell id="e4J6RjBOe4QQsEFrMTt_-21" value="D" style="shape=partialRectangle;html=1;whiteSpace=wrap;connectable=0;overflow=hidden;fillColor=none;top=0;left=0;bottom=0;right=0;pointerEvents=1;fontSize=22;" vertex="1" parent="e4J6RjBOe4QQsEFrMTt_-19">
                    <mxGeometry x="100" width="100" height="47" as="geometry">
                        <mxRectangle width="100" height="47" as="alternateBounds"/>
                    </mxGeometry>
                </mxCell>
                <mxCell id="e4J6RjBOe4QQsEFrMTt_-59" style="shape=tableRow;horizontal=0;startSize=0;swimlaneHead=0;swimlaneBody=0;top=0;left=0;bottom=0;right=0;collapsible=0;dropTarget=0;fillColor=none;points=[[0,0.5],[1,0.5]];portConstraint=eastwest;fontSize=22;" vertex="1" parent="e4J6RjBOe4QQsEFrMTt_-15">
                    <mxGeometry y="124" width="200" height="47" as="geometry"/>
                </mxCell>
                <mxCell id="e4J6RjBOe4QQsEFrMTt_-60" value="E" style="shape=partialRectangle;html=1;whiteSpace=wrap;connectable=0;overflow=hidden;fillColor=#ffe6cc;top=0;left=0;bottom=0;right=0;pointerEvents=1;fontSize=22;strokeColor=#d79b00;" vertex="1" parent="e4J6RjBOe4QQsEFrMTt_-59">
                    <mxGeometry width="100" height="47" as="geometry">
                        <mxRectangle width="100" height="47" as="alternateBounds"/>
                    </mxGeometry>
                </mxCell>
                <mxCell id="e4J6RjBOe4QQsEFrMTt_-61" style="shape=partialRectangle;html=1;whiteSpace=wrap;connectable=0;overflow=hidden;fillColor=none;top=0;left=0;bottom=0;right=0;pointerEvents=1;fontSize=22;" vertex="1" parent="e4J6RjBOe4QQsEFrMTt_-59">
                    <mxGeometry x="100" width="100" height="47" as="geometry">
                        <mxRectangle width="100" height="47" as="alternateBounds"/>
                    </mxGeometry>
                </mxCell>
                <mxCell id="e4J6RjBOe4QQsEFrMTt_-32" value="" style="shape=table;startSize=0;container=1;collapsible=0;childLayout=tableLayout;fontSize=22;" vertex="1" parent="1">
                    <mxGeometry x="300" y="683" width="200" height="171" as="geometry"/>
                </mxCell>
                <mxCell id="e4J6RjBOe4QQsEFrMTt_-33" value="" style="shape=tableRow;horizontal=0;startSize=0;swimlaneHead=0;swimlaneBody=0;top=0;left=0;bottom=0;right=0;collapsible=0;dropTarget=0;fillColor=none;points=[[0,0.5],[1,0.5]];portConstraint=eastwest;fontSize=22;" vertex="1" parent="e4J6RjBOe4QQsEFrMTt_-32">
                    <mxGeometry width="200" height="30" as="geometry"/>
                </mxCell>
                <mxCell id="e4J6RjBOe4QQsEFrMTt_-34" value="vlan1" style="shape=partialRectangle;html=1;whiteSpace=wrap;connectable=0;overflow=hidden;fillColor=none;top=0;left=0;bottom=0;right=0;pointerEvents=1;fontSize=22;" vertex="1" parent="e4J6RjBOe4QQsEFrMTt_-33">
                    <mxGeometry width="100" height="30" as="geometry">
                        <mxRectangle width="100" height="30" as="alternateBounds"/>
                    </mxGeometry>
                </mxCell>
                <mxCell id="e4J6RjBOe4QQsEFrMTt_-35" value="vlan2" style="shape=partialRectangle;html=1;whiteSpace=wrap;connectable=0;overflow=hidden;fillColor=none;top=0;left=0;bottom=0;right=0;pointerEvents=1;fontSize=22;" vertex="1" parent="e4J6RjBOe4QQsEFrMTt_-33">
                    <mxGeometry x="100" width="100" height="30" as="geometry">
                        <mxRectangle width="100" height="30" as="alternateBounds"/>
                    </mxGeometry>
                </mxCell>
                <mxCell id="e4J6RjBOe4QQsEFrMTt_-36" style="shape=tableRow;horizontal=0;startSize=0;swimlaneHead=0;swimlaneBody=0;top=0;left=0;bottom=0;right=0;collapsible=0;dropTarget=0;fillColor=none;points=[[0,0.5],[1,0.5]];portConstraint=eastwest;fontSize=22;" vertex="1" parent="e4J6RjBOe4QQsEFrMTt_-32">
                    <mxGeometry y="30" width="200" height="47" as="geometry"/>
                </mxCell>
                <mxCell id="e4J6RjBOe4QQsEFrMTt_-37" value="E" style="shape=partialRectangle;html=1;whiteSpace=wrap;connectable=0;overflow=hidden;fillColor=none;top=0;left=0;bottom=0;right=0;pointerEvents=1;fontSize=22;" vertex="1" parent="e4J6RjBOe4QQsEFrMTt_-36">
                    <mxGeometry width="100" height="47" as="geometry">
                        <mxRectangle width="100" height="47" as="alternateBounds"/>
                    </mxGeometry>
                </mxCell>
                <mxCell id="e4J6RjBOe4QQsEFrMTt_-38" value="G" style="shape=partialRectangle;html=1;whiteSpace=wrap;connectable=0;overflow=hidden;fillColor=none;top=0;left=0;bottom=0;right=0;pointerEvents=1;fontSize=22;" vertex="1" parent="e4J6RjBOe4QQsEFrMTt_-36">
                    <mxGeometry x="100" width="100" height="47" as="geometry">
                        <mxRectangle width="100" height="47" as="alternateBounds"/>
                    </mxGeometry>
                </mxCell>
                <mxCell id="e4J6RjBOe4QQsEFrMTt_-39" value="" style="shape=tableRow;horizontal=0;startSize=0;swimlaneHead=0;swimlaneBody=0;top=0;left=0;bottom=0;right=0;collapsible=0;dropTarget=0;fillColor=none;points=[[0,0.5],[1,0.5]];portConstraint=eastwest;fontSize=22;" vertex="1" parent="e4J6RjBOe4QQsEFrMTt_-32">
                    <mxGeometry y="77" width="200" height="47" as="geometry"/>
                </mxCell>
                <mxCell id="e4J6RjBOe4QQsEFrMTt_-40" value="F" style="shape=partialRectangle;html=1;whiteSpace=wrap;connectable=0;overflow=hidden;fillColor=none;top=0;left=0;bottom=0;right=0;pointerEvents=1;fontSize=22;" vertex="1" parent="e4J6RjBOe4QQsEFrMTt_-39">
                    <mxGeometry width="100" height="47" as="geometry">
                        <mxRectangle width="100" height="47" as="alternateBounds"/>
                    </mxGeometry>
                </mxCell>
                <mxCell id="e4J6RjBOe4QQsEFrMTt_-41" value="H" style="shape=partialRectangle;html=1;whiteSpace=wrap;connectable=0;overflow=hidden;fillColor=none;top=0;left=0;bottom=0;right=0;pointerEvents=1;fontSize=22;" vertex="1" parent="e4J6RjBOe4QQsEFrMTt_-39">
                    <mxGeometry x="100" width="100" height="47" as="geometry">
                        <mxRectangle width="100" height="47" as="alternateBounds"/>
                    </mxGeometry>
                </mxCell>
                <mxCell id="e4J6RjBOe4QQsEFrMTt_-56" style="shape=tableRow;horizontal=0;startSize=0;swimlaneHead=0;swimlaneBody=0;top=0;left=0;bottom=0;right=0;collapsible=0;dropTarget=0;fillColor=none;points=[[0,0.5],[1,0.5]];portConstraint=eastwest;fontSize=22;" vertex="1" parent="e4J6RjBOe4QQsEFrMTt_-32">
                    <mxGeometry y="124" width="200" height="47" as="geometry"/>
                </mxCell>
                <mxCell id="e4J6RjBOe4QQsEFrMTt_-57" value="A" style="shape=partialRectangle;html=1;whiteSpace=wrap;connectable=0;overflow=hidden;fillColor=#ffe6cc;top=0;left=0;bottom=0;right=0;pointerEvents=1;fontSize=22;strokeColor=#d79b00;" vertex="1" parent="e4J6RjBOe4QQsEFrMTt_-56">
                    <mxGeometry width="100" height="47" as="geometry">
                        <mxRectangle width="100" height="47" as="alternateBounds"/>
                    </mxGeometry>
                </mxCell>
                <mxCell id="e4J6RjBOe4QQsEFrMTt_-58" style="shape=partialRectangle;html=1;whiteSpace=wrap;connectable=0;overflow=hidden;fillColor=none;top=0;left=0;bottom=0;right=0;pointerEvents=1;fontSize=22;" vertex="1" parent="e4J6RjBOe4QQsEFrMTt_-56">
                    <mxGeometry x="100" width="100" height="47" as="geometry">
                        <mxRectangle width="100" height="47" as="alternateBounds"/>
                    </mxGeometry>
                </mxCell>
            </root>
        </mxGraphModel>
    </diagram>
    <diagram id="MH8g87R8WAs34fRrYSZ-" name="Page-5">
        <mxGraphModel dx="920" dy="773" grid="1" gridSize="10" guides="1" tooltips="1" connect="1" arrows="1" fold="1" page="1" pageScale="1" pageWidth="827" pageHeight="1169" math="0" shadow="0">
            <root>
                <mxCell id="0"/>
                <mxCell id="1" parent="0"/>
                <mxCell id="ZEyjfjS3Pb-RqAs4BPHa-1" value="Spanning Tree Protocol" style="text;strokeColor=#666666;align=center;fillColor=#f5f5f5;html=1;verticalAlign=middle;whiteSpace=wrap;rounded=0;fontSize=22;fontColor=#333333;fontStyle=1" vertex="1" parent="1">
                    <mxGeometry x="340" y="160" width="270" height="30" as="geometry"/>
                </mxCell>
                <mxCell id="ZEyjfjS3Pb-RqAs4BPHa-2" value="CST" style="text;align=center;fillColor=#d0cee2;html=1;verticalAlign=middle;whiteSpace=wrap;rounded=0;fontSize=22;fontStyle=1;strokeColor=#56517e;" vertex="1" parent="1">
                    <mxGeometry x="40" y="240" width="110" height="70" as="geometry"/>
                </mxCell>
                <mxCell id="ZEyjfjS3Pb-RqAs4BPHa-3" value="PVST" style="text;align=center;fillColor=#d0cee2;html=1;verticalAlign=middle;whiteSpace=wrap;rounded=0;fontSize=22;fontStyle=1;strokeColor=#56517e;" vertex="1" parent="1">
                    <mxGeometry x="169" y="240" width="110" height="70" as="geometry"/>
                </mxCell>
                <mxCell id="ZEyjfjS3Pb-RqAs4BPHa-4" value="MST" style="text;align=center;fillColor=#d0cee2;html=1;verticalAlign=middle;whiteSpace=wrap;rounded=0;fontSize=22;fontStyle=1;strokeColor=#56517e;" vertex="1" parent="1">
                    <mxGeometry x="423.5" y="240" width="110" height="70" as="geometry"/>
                </mxCell>
                <mxCell id="ZEyjfjS3Pb-RqAs4BPHa-5" value="PVST+" style="text;align=center;fillColor=#d0cee2;html=1;verticalAlign=middle;whiteSpace=wrap;rounded=0;fontSize=22;fontStyle=1;strokeColor=#56517e;" vertex="1" parent="1">
                    <mxGeometry x="294.5" y="240" width="110" height="70" as="geometry"/>
                </mxCell>
                <mxCell id="ZEyjfjS3Pb-RqAs4BPHa-6" value="RSTP" style="text;align=center;fillColor=#d0cee2;html=1;verticalAlign=middle;whiteSpace=wrap;rounded=0;fontSize=22;fontStyle=1;strokeColor=#56517e;" vertex="1" parent="1">
                    <mxGeometry x="549" y="240" width="110" height="70" as="geometry"/>
                </mxCell>
                <mxCell id="ZEyjfjS3Pb-RqAs4BPHa-7" value="RSTP+" style="text;align=center;fillColor=#d0cee2;html=1;verticalAlign=middle;whiteSpace=wrap;rounded=0;fontSize=22;fontStyle=1;strokeColor=#56517e;" vertex="1" parent="1">
                    <mxGeometry x="678" y="240" width="110" height="70" as="geometry"/>
                </mxCell>
                <mxCell id="ZEyjfjS3Pb-RqAs4BPHa-8" value="PVRST" style="text;align=center;fillColor=#d0cee2;html=1;verticalAlign=middle;whiteSpace=wrap;rounded=0;fontSize=22;fontStyle=1;strokeColor=#56517e;" vertex="1" parent="1">
                    <mxGeometry x="810" y="240" width="110" height="70" as="geometry"/>
                </mxCell>
                <mxCell id="ZEyjfjS3Pb-RqAs4BPHa-9" value="" style="edgeStyle=none;orthogonalLoop=1;jettySize=auto;html=1;fontSize=22;endArrow=none;endFill=0;strokeWidth=6;" edge="1" parent="1">
                    <mxGeometry width="80" relative="1" as="geometry">
                        <mxPoint x="30" y="210" as="sourcePoint"/>
                        <mxPoint x="930" y="210" as="targetPoint"/>
                        <Array as="points"/>
                    </mxGeometry>
                </mxCell>
            </root>
        </mxGraphModel>
    </diagram>
    <diagram id="LDhhJ6r26Q2zdoSHTrCU" name="Page-2">
        <mxGraphModel dx="867" dy="541" grid="1" gridSize="10" guides="1" tooltips="1" connect="1" arrows="1" fold="1" page="1" pageScale="1" pageWidth="827" pageHeight="1169" math="0" shadow="0">
            <root>
                <mxCell id="0"/>
                <mxCell id="1" parent="0"/>
                <mxCell id="ey2I0MBR7vbpzrBpxil_-1" value="" style="whiteSpace=wrap;html=1;fontSize=22;fontStyle=1" parent="1" vertex="1">
                    <mxGeometry x="190" y="280" width="250" height="60" as="geometry"/>
                </mxCell>
                <mxCell id="ey2I0MBR7vbpzrBpxil_-2" value="SRC" style="whiteSpace=wrap;html=1;fontSize=22;fontStyle=1" parent="1" vertex="1">
                    <mxGeometry x="440" y="280" width="60" height="60" as="geometry"/>
                </mxCell>
                <mxCell id="ey2I0MBR7vbpzrBpxil_-3" value="DEST" style="whiteSpace=wrap;html=1;fontSize=22;fontStyle=1;fillColor=#ffe6cc;strokeColor=#d79b00;" parent="1" vertex="1">
                    <mxGeometry x="500" y="280" width="60" height="60" as="geometry"/>
                </mxCell>
                <mxCell id="ey2I0MBR7vbpzrBpxil_-4" value="CRC" style="whiteSpace=wrap;html=1;fontSize=22;fontStyle=1" parent="1" vertex="1">
                    <mxGeometry x="130" y="280" width="60" height="60" as="geometry"/>
                </mxCell>
                <mxCell id="ey2I0MBR7vbpzrBpxil_-5" value="6 bytes" style="text;strokeColor=#d79b00;align=center;fillColor=#ffe6cc;html=1;verticalAlign=middle;whiteSpace=wrap;rounded=0;fontSize=22;fontStyle=1" parent="1" vertex="1">
                    <mxGeometry x="480" y="240" width="80" height="30" as="geometry"/>
                </mxCell>
                <mxCell id="ey2I0MBR7vbpzrBpxil_-6" value="64 bytes" style="text;strokeColor=#6c8ebf;align=center;fillColor=#dae8fc;html=1;verticalAlign=middle;whiteSpace=wrap;rounded=0;fontSize=22;fontStyle=1" parent="1" vertex="1">
                    <mxGeometry x="290" y="160" width="270" height="50" as="geometry"/>
                </mxCell>
            </root>
        </mxGraphModel>
    </diagram>
    <diagram id="cITO3L8EvyV-7Kqg0DGG" name="Page-1">
        <mxGraphModel dx="1840" dy="1546" grid="1" gridSize="10" guides="1" tooltips="1" connect="1" arrows="1" fold="1" page="1" pageScale="1" pageWidth="827" pageHeight="1169" math="0" shadow="0">
            <root>
                <mxCell id="0"/>
                <mxCell id="1" parent="0"/>
                <mxCell id="Me74lGSyhVKjw7JwMnY8-27" value="" style="whiteSpace=wrap;html=1;fontSize=22;fillColor=#dae8fc;strokeColor=#6c8ebf;" vertex="1" parent="1">
                    <mxGeometry x="1010" y="100" width="690" height="460" as="geometry"/>
                </mxCell>
                <mxCell id="Me74lGSyhVKjw7JwMnY8-26" value="" style="whiteSpace=wrap;html=1;fontSize=22;fillColor=#ffe6cc;strokeColor=#d79b00;" vertex="1" parent="1">
                    <mxGeometry x="100" y="100" width="690" height="460" as="geometry"/>
                </mxCell>
                <mxCell id="19" style="edgeStyle=none;html=1;fontSize=22;endArrow=none;endFill=0;" edge="1" parent="1" source="2" target="4">
                    <mxGeometry relative="1" as="geometry"/>
                </mxCell>
                <mxCell id="2" value="" style="whiteSpace=wrap;html=1;" vertex="1" parent="1">
                    <mxGeometry x="470" y="250" width="120" height="60" as="geometry"/>
                </mxCell>
                <mxCell id="3" value="" style="whiteSpace=wrap;html=1;" vertex="1" parent="1">
                    <mxGeometry x="180" y="390" width="120" height="60" as="geometry"/>
                </mxCell>
                <mxCell id="4" value="" style="whiteSpace=wrap;html=1;" vertex="1" parent="1">
                    <mxGeometry x="170" y="230" width="120" height="60" as="geometry"/>
                </mxCell>
                <mxCell id="16" style="edgeStyle=none;html=1;entryX=1;entryY=0.5;entryDx=0;entryDy=0;fontSize=22;endArrow=none;endFill=0;" edge="1" parent="1" source="6" target="12">
                    <mxGeometry relative="1" as="geometry"/>
                </mxCell>
                <mxCell id="17" style="edgeStyle=none;html=1;fontSize=22;endArrow=none;endFill=0;" edge="1" parent="1" source="6" target="2">
                    <mxGeometry relative="1" as="geometry"/>
                </mxCell>
                <mxCell id="18" style="edgeStyle=none;html=1;entryX=1;entryY=0.5;entryDx=0;entryDy=0;fontSize=22;endArrow=none;endFill=0;" edge="1" parent="1" source="6" target="7">
                    <mxGeometry relative="1" as="geometry"/>
                </mxCell>
                <mxCell id="6" value="" style="whiteSpace=wrap;html=1;" vertex="1" parent="1">
                    <mxGeometry x="690" y="310" width="120" height="60" as="geometry"/>
                </mxCell>
                <mxCell id="23" style="edgeStyle=none;html=1;fontSize=22;endArrow=none;endFill=0;" edge="1" parent="1" source="7" target="3">
                    <mxGeometry relative="1" as="geometry"/>
                </mxCell>
                <mxCell id="7" value="" style="whiteSpace=wrap;html=1;" vertex="1" parent="1">
                    <mxGeometry x="470" y="360" width="120" height="60" as="geometry"/>
                </mxCell>
                <mxCell id="8" value="172.16.X.0/24" style="text;strokeColor=none;align=center;fillColor=none;html=1;verticalAlign=middle;whiteSpace=wrap;rounded=0;fontStyle=1;fontSize=22;" vertex="1" parent="1">
                    <mxGeometry x="350" y="455" width="110" height="30" as="geometry"/>
                </mxCell>
                <mxCell id="9" value="" style="whiteSpace=wrap;html=1;flipV=1;flipH=0;direction=west;" vertex="1" parent="1">
                    <mxGeometry x="1420" y="210" width="120" height="60" as="geometry"/>
                </mxCell>
                <mxCell id="Me74lGSyhVKjw7JwMnY8-33" style="edgeStyle=none;html=1;fontSize=33;endArrow=none;endFill=0;" edge="1" parent="1" source="10" target="13">
                    <mxGeometry relative="1" as="geometry"/>
                </mxCell>
                <mxCell id="10" value="" style="whiteSpace=wrap;html=1;flipV=1;flipH=0;direction=west;" vertex="1" parent="1">
                    <mxGeometry x="1190" y="370" width="120" height="60" as="geometry"/>
                </mxCell>
                <mxCell id="Me74lGSyhVKjw7JwMnY8-32" value="" style="edgeStyle=none;html=1;fontSize=33;endArrow=none;endFill=0;" edge="1" parent="1" source="11" target="9">
                    <mxGeometry relative="1" as="geometry"/>
                </mxCell>
                <mxCell id="11" value="" style="whiteSpace=wrap;html=1;flipV=1;flipH=0;direction=west;" vertex="1" parent="1">
                    <mxGeometry x="1181" y="250" width="120" height="60" as="geometry"/>
                </mxCell>
                <mxCell id="Me74lGSyhVKjw7JwMnY8-30" style="edgeStyle=none;html=1;entryX=1;entryY=0.5;entryDx=0;entryDy=0;fontSize=33;endArrow=none;endFill=0;" edge="1" parent="1" source="12" target="11">
                    <mxGeometry relative="1" as="geometry"/>
                </mxCell>
                <mxCell id="Me74lGSyhVKjw7JwMnY8-31" style="edgeStyle=none;html=1;entryX=1;entryY=0.5;entryDx=0;entryDy=0;fontSize=33;endArrow=none;endFill=0;" edge="1" parent="1" source="12" target="10">
                    <mxGeometry relative="1" as="geometry"/>
                </mxCell>
                <mxCell id="12" value="" style="whiteSpace=wrap;html=1;flipV=1;flipH=0;direction=west;" vertex="1" parent="1">
                    <mxGeometry x="990" y="310" width="120" height="60" as="geometry"/>
                </mxCell>
                <mxCell id="13" value="" style="whiteSpace=wrap;html=1;flipV=1;flipH=0;direction=west;" vertex="1" parent="1">
                    <mxGeometry x="1420" y="390" width="120" height="60" as="geometry"/>
                </mxCell>
                <mxCell id="14" value="172.16.X.0/24" style="text;strokeColor=none;align=center;fillColor=none;html=1;verticalAlign=middle;whiteSpace=wrap;rounded=0;fontStyle=1;fontSize=22;flipV=1;flipH=0;direction=west;" vertex="1" parent="1">
                    <mxGeometry x="1505" y="435" width="110" height="30" as="geometry"/>
                </mxCell>
                <mxCell id="21" value="" style="shape=singleArrow;direction=north;whiteSpace=wrap;html=1;fontSize=22;rotation=-75;" vertex="1" parent="1">
                    <mxGeometry x="510" y="150" width="60" height="100" as="geometry"/>
                </mxCell>
                <mxCell id="22" value="" style="shape=singleArrow;direction=north;whiteSpace=wrap;html=1;fontSize=22;rotation=-120;" vertex="1" parent="1">
                    <mxGeometry x="530" y="420" width="60" height="100" as="geometry"/>
                </mxCell>
                <mxCell id="25" value="LSA" style="text;strokeColor=none;align=center;fillColor=none;html=1;verticalAlign=middle;whiteSpace=wrap;rounded=0;fontStyle=1;fontSize=22;" vertex="1" parent="1">
                    <mxGeometry x="550" y="490" width="110" height="30" as="geometry"/>
                </mxCell>
                <mxCell id="26" value="LSA" style="text;strokeColor=none;align=center;fillColor=none;html=1;verticalAlign=middle;whiteSpace=wrap;rounded=0;fontStyle=1;fontSize=22;" vertex="1" parent="1">
                    <mxGeometry x="530" y="150" width="110" height="30" as="geometry"/>
                </mxCell>
                <mxCell id="Me74lGSyhVKjw7JwMnY8-28" value="Autonomeous System" style="text;strokeColor=none;align=center;fillColor=none;html=1;verticalAlign=middle;whiteSpace=wrap;rounded=0;fontSize=33;fontStyle=1" vertex="1" parent="1">
                    <mxGeometry x="607" y="80" width="220" height="30" as="geometry"/>
                </mxCell>
                <mxCell id="Me74lGSyhVKjw7JwMnY8-29" value="Autonomeous System" style="text;strokeColor=none;align=center;fillColor=none;html=1;verticalAlign=middle;whiteSpace=wrap;rounded=0;fontSize=33;fontStyle=1" vertex="1" parent="1">
                    <mxGeometry x="940" y="70" width="220" height="30" as="geometry"/>
                </mxCell>
            </root>
        </mxGraphModel>
    </diagram>
    <diagram id="QklIP6FYoE_Vp2KuMRgd" name="Page-3">
        <mxGraphModel dx="963" dy="601" grid="1" gridSize="10" guides="1" tooltips="1" connect="1" arrows="1" fold="1" page="1" pageScale="1" pageWidth="827" pageHeight="1169" math="0" shadow="0">
            <root>
                <mxCell id="0"/>
                <mxCell id="1" parent="0"/>
                <mxCell id="6brKq4QYN7k7HEsjKDZM-5" style="edgeStyle=none;html=1;entryX=0.5;entryY=0;entryDx=0;entryDy=0;fontSize=33;endArrow=none;endFill=0;" parent="1" source="6brKq4QYN7k7HEsjKDZM-1" target="6brKq4QYN7k7HEsjKDZM-3" edge="1">
                    <mxGeometry relative="1" as="geometry"/>
                </mxCell>
                <mxCell id="6brKq4QYN7k7HEsjKDZM-1" value="SW1" style="whiteSpace=wrap;html=1;aspect=fixed;fontSize=33;fontStyle=1" parent="1" vertex="1">
                    <mxGeometry x="150" y="230" width="80" height="80" as="geometry"/>
                </mxCell>
                <mxCell id="6brKq4QYN7k7HEsjKDZM-8" style="edgeStyle=none;html=1;entryX=1;entryY=0.5;entryDx=0;entryDy=0;fontSize=33;endArrow=none;endFill=0;" parent="1" source="6brKq4QYN7k7HEsjKDZM-2" target="6brKq4QYN7k7HEsjKDZM-1" edge="1">
                    <mxGeometry relative="1" as="geometry"/>
                </mxCell>
                <mxCell id="6brKq4QYN7k7HEsjKDZM-2" value="SW4" style="whiteSpace=wrap;html=1;aspect=fixed;fontSize=33;fontStyle=1" parent="1" vertex="1">
                    <mxGeometry x="580" y="230" width="80" height="80" as="geometry"/>
                </mxCell>
                <mxCell id="6brKq4QYN7k7HEsjKDZM-6" style="edgeStyle=none;html=1;fontSize=33;endArrow=none;endFill=0;" parent="1" source="6brKq4QYN7k7HEsjKDZM-3" target="6brKq4QYN7k7HEsjKDZM-4" edge="1">
                    <mxGeometry relative="1" as="geometry"/>
                </mxCell>
                <mxCell id="6brKq4QYN7k7HEsjKDZM-3" value="SW2" style="whiteSpace=wrap;html=1;aspect=fixed;fontSize=33;fontStyle=1" parent="1" vertex="1">
                    <mxGeometry x="150" y="505" width="80" height="80" as="geometry"/>
                </mxCell>
                <mxCell id="6brKq4QYN7k7HEsjKDZM-7" style="edgeStyle=none;html=1;fontSize=33;endArrow=none;endFill=0;" parent="1" source="6brKq4QYN7k7HEsjKDZM-4" target="6brKq4QYN7k7HEsjKDZM-2" edge="1">
                    <mxGeometry relative="1" as="geometry"/>
                </mxCell>
                <mxCell id="6brKq4QYN7k7HEsjKDZM-4" value="SW3" style="whiteSpace=wrap;html=1;aspect=fixed;fontSize=33;fontStyle=1" parent="1" vertex="1">
                    <mxGeometry x="580" y="505" width="80" height="80" as="geometry"/>
                </mxCell>
                <mxCell id="hEjsqV0QLk287v3BNDAi-1" value="designated port" style="text;strokeColor=#82b366;align=center;fillColor=#d5e8d4;html=1;verticalAlign=middle;whiteSpace=wrap;rounded=0;fontStyle=1" vertex="1" parent="1">
                    <mxGeometry x="230" y="240" width="120" height="30" as="geometry"/>
                </mxCell>
                <mxCell id="hEjsqV0QLk287v3BNDAi-2" value="root port" style="text;strokeColor=#b85450;align=center;fillColor=#f8cecc;html=1;verticalAlign=middle;whiteSpace=wrap;rounded=0;direction=west;fontStyle=1" vertex="1" parent="1">
                    <mxGeometry x="500" y="514" width="80" height="30" as="geometry"/>
                </mxCell>
                <mxCell id="hEjsqV0QLk287v3BNDAi-3" value="root port" style="text;strokeColor=#b85450;align=center;fillColor=#f8cecc;html=1;verticalAlign=middle;whiteSpace=wrap;rounded=0;direction=south;fontStyle=1" vertex="1" parent="1">
                    <mxGeometry x="160" y="425" width="30" height="80" as="geometry"/>
                </mxCell>
                <mxCell id="hEjsqV0QLk287v3BNDAi-4" value="root port" style="text;strokeColor=#b85450;align=center;fillColor=#f8cecc;html=1;verticalAlign=middle;whiteSpace=wrap;rounded=0;direction=west;fontStyle=1" vertex="1" parent="1">
                    <mxGeometry x="500" y="240" width="80" height="30" as="geometry"/>
                </mxCell>
                <mxCell id="hEjsqV0QLk287v3BNDAi-5" value="designated port" style="text;strokeColor=#82b366;align=center;fillColor=#d5e8d4;html=1;verticalAlign=middle;whiteSpace=wrap;rounded=0;fontStyle=1" vertex="1" parent="1">
                    <mxGeometry x="230" y="514" width="120" height="30" as="geometry"/>
                </mxCell>
                <mxCell id="hEjsqV0QLk287v3BNDAi-6" value="designated port" style="text;strokeColor=#82b366;align=center;fillColor=#d5e8d4;html=1;verticalAlign=middle;whiteSpace=wrap;rounded=0;direction=south;fontStyle=1" vertex="1" parent="1">
                    <mxGeometry x="620" y="460" width="30" height="45" as="geometry"/>
                </mxCell>
                <mxCell id="hEjsqV0QLk287v3BNDAi-7" value="designated port" style="text;strokeColor=#82b366;align=center;fillColor=#d5e8d4;html=1;verticalAlign=middle;whiteSpace=wrap;rounded=0;direction=south;fontStyle=1" vertex="1" parent="1">
                    <mxGeometry x="620" y="310" width="100" height="30" as="geometry"/>
                </mxCell>
                <mxCell id="hEjsqV0QLk287v3BNDAi-8" value="STP cost" style="text;strokeColor=#666666;align=center;fillColor=#f5f5f5;html=1;verticalAlign=middle;whiteSpace=wrap;rounded=0;fontColor=#333333;fontStyle=1" vertex="1" parent="1">
                    <mxGeometry x="100" y="330" width="60" height="30" as="geometry"/>
                </mxCell>
                <mxCell id="hEjsqV0QLk287v3BNDAi-9" value="19" style="text;strokeColor=#666666;align=center;fillColor=#f5f5f5;html=1;verticalAlign=middle;whiteSpace=wrap;rounded=0;fontColor=#333333;fontSize=22;fontStyle=1" vertex="1" parent="1">
                    <mxGeometry x="100" y="360" width="60" height="30" as="geometry"/>
                </mxCell>
                <mxCell id="hEjsqV0QLk287v3BNDAi-10" value="57" style="text;strokeColor=#666666;align=center;fillColor=#f5f5f5;html=1;verticalAlign=middle;whiteSpace=wrap;rounded=0;fontColor=#333333;fontSize=22;fontStyle=1" vertex="1" parent="1">
                    <mxGeometry x="230" y="544" width="60" height="30" as="geometry"/>
                </mxCell>
                <mxCell id="hEjsqV0QLk287v3BNDAi-11" value="38" style="text;strokeColor=#666666;align=center;fillColor=#f5f5f5;html=1;verticalAlign=middle;whiteSpace=wrap;rounded=0;fontColor=#333333;fontSize=22;fontStyle=1" vertex="1" parent="1">
                    <mxGeometry x="660" y="505" width="60" height="30" as="geometry"/>
                </mxCell>
                <mxCell id="hEjsqV0QLk287v3BNDAi-12" value="19" style="text;strokeColor=#666666;align=center;fillColor=#f5f5f5;html=1;verticalAlign=middle;whiteSpace=wrap;rounded=0;fontColor=#333333;fontSize=22;fontStyle=1" vertex="1" parent="1">
                    <mxGeometry x="520" y="210" width="60" height="30" as="geometry"/>
                </mxCell>
                <mxCell id="hEjsqV0QLk287v3BNDAi-13" value="38" style="text;strokeColor=#666666;align=center;fillColor=#f5f5f5;html=1;verticalAlign=middle;whiteSpace=wrap;rounded=0;fontColor=#333333;fontSize=22;fontStyle=1" vertex="1" parent="1">
                    <mxGeometry x="520" y="544" width="60" height="30" as="geometry"/>
                </mxCell>
                <mxCell id="GicKshzxhCtq_b-aJNcW-1" value="designated port" style="text;strokeColor=#82b366;align=center;fillColor=#d5e8d4;html=1;verticalAlign=middle;whiteSpace=wrap;rounded=0;fontStyle=1" vertex="1" parent="1">
                    <mxGeometry x="160" y="310" width="30" height="30" as="geometry"/>
                </mxCell>
                <mxCell id="GicKshzxhCtq_b-aJNcW-2" value="19" style="text;strokeColor=#666666;align=center;fillColor=#f5f5f5;html=1;verticalAlign=middle;whiteSpace=wrap;rounded=0;fontColor=#333333;fontSize=22;fontStyle=1" vertex="1" parent="1">
                    <mxGeometry x="100" y="475" width="60" height="30" as="geometry"/>
                </mxCell>
                <mxCell id="GicKshzxhCtq_b-aJNcW-3" value="57" style="text;strokeColor=#666666;align=center;fillColor=#f5f5f5;html=1;verticalAlign=middle;whiteSpace=wrap;rounded=0;fontColor=#333333;fontSize=22;fontStyle=1" vertex="1" parent="1">
                    <mxGeometry x="560" y="310" width="60" height="30" as="geometry"/>
                </mxCell>
            </root>
        </mxGraphModel>
    </diagram>
    <diagram id="rliso43Ixn-qQ_cHaxI-" name="Page-4">
        <mxGraphModel dx="867" dy="541" grid="1" gridSize="10" guides="1" tooltips="1" connect="1" arrows="1" fold="1" page="1" pageScale="1" pageWidth="827" pageHeight="1169" math="0" shadow="0">
            <root>
                <mxCell id="0"/>
                <mxCell id="1" parent="0"/>
                <mxCell id="na42v8ekj68RWlV2OfSu-4" style="edgeStyle=none;html=1;fontSize=22;endArrow=none;endFill=0;" edge="1" parent="1" source="na42v8ekj68RWlV2OfSu-1" target="na42v8ekj68RWlV2OfSu-3">
                    <mxGeometry relative="1" as="geometry"/>
                </mxCell>
                <mxCell id="na42v8ekj68RWlV2OfSu-5" style="edgeStyle=none;html=1;entryX=0.344;entryY=0.017;entryDx=0;entryDy=0;entryPerimeter=0;fontSize=22;endArrow=none;endFill=0;" edge="1" parent="1" source="na42v8ekj68RWlV2OfSu-1" target="na42v8ekj68RWlV2OfSu-2">
                    <mxGeometry relative="1" as="geometry"/>
                </mxCell>
                <mxCell id="na42v8ekj68RWlV2OfSu-1" value="" style="whiteSpace=wrap;html=1;fontSize=22;" vertex="1" parent="1">
                    <mxGeometry x="340" y="160" width="120" height="60" as="geometry"/>
                </mxCell>
                <mxCell id="na42v8ekj68RWlV2OfSu-6" style="edgeStyle=none;html=1;entryX=1;entryY=0.5;entryDx=0;entryDy=0;fontSize=22;endArrow=none;endFill=0;" edge="1" parent="1" source="na42v8ekj68RWlV2OfSu-2" target="na42v8ekj68RWlV2OfSu-3">
                    <mxGeometry relative="1" as="geometry"/>
                </mxCell>
                <mxCell id="na42v8ekj68RWlV2OfSu-2" value="" style="whiteSpace=wrap;html=1;fontSize=22;" vertex="1" parent="1">
                    <mxGeometry x="490" y="350" width="120" height="60" as="geometry"/>
                </mxCell>
                <mxCell id="na42v8ekj68RWlV2OfSu-3" value="" style="whiteSpace=wrap;html=1;fontSize=22;" vertex="1" parent="1">
                    <mxGeometry x="190" y="350" width="120" height="60" as="geometry"/>
                </mxCell>
                <mxCell id="na42v8ekj68RWlV2OfSu-7" value="38" style="whiteSpace=wrap;html=1;fontSize=22;fillColor=#f5f5f5;fontColor=#333333;strokeColor=#666666;" vertex="1" parent="1">
                    <mxGeometry x="430" y="380" width="60" height="40" as="geometry"/>
                </mxCell>
                <mxCell id="na42v8ekj68RWlV2OfSu-8" value="38" style="whiteSpace=wrap;html=1;fontSize=22;fillColor=#f5f5f5;fontColor=#333333;strokeColor=#666666;" vertex="1" parent="1">
                    <mxGeometry x="310" y="380" width="60" height="40" as="geometry"/>
                </mxCell>
                <mxCell id="na42v8ekj68RWlV2OfSu-10" value="19" style="whiteSpace=wrap;html=1;fontSize=22;fillColor=#f5f5f5;fontColor=#333333;strokeColor=#666666;" vertex="1" parent="1">
                    <mxGeometry x="250" y="260" width="60" height="40" as="geometry"/>
                </mxCell>
                <mxCell id="na42v8ekj68RWlV2OfSu-11" value="19" style="whiteSpace=wrap;html=1;fontSize=22;fillColor=#f5f5f5;fontColor=#333333;strokeColor=#666666;" vertex="1" parent="1">
                    <mxGeometry x="500" y="260" width="60" height="40" as="geometry"/>
                </mxCell>
            </root>
        </mxGraphModel>
    </diagram>
    <diagram id="6QafPcvsUaapisMD0-h-" name="Page-7">
        <mxGraphModel dx="2754" dy="1202" grid="1" gridSize="10" guides="1" tooltips="1" connect="1" arrows="1" fold="1" page="1" pageScale="1" pageWidth="827" pageHeight="1169" math="0" shadow="0">
            <root>
                <mxCell id="0"/>
                <mxCell id="1" parent="0"/>
                <mxCell id="W6SSFm2GU63rledz_CJb-17" value="" style="whiteSpace=wrap;html=1;fontSize=22;fillColor=#ffe6cc;strokeColor=#d79b00;" vertex="1" parent="1">
                    <mxGeometry x="100" y="390" width="610" height="1280" as="geometry"/>
                </mxCell>
                <mxCell id="W6SSFm2GU63rledz_CJb-27" value="SW1" style="whiteSpace=wrap;html=1;fontSize=33;fontStyle=1" vertex="1" parent="1">
                    <mxGeometry x="-5" y="272" width="320" height="176" as="geometry"/>
                </mxCell>
                <mxCell id="W6SSFm2GU63rledz_CJb-2" value="" style="shape=table;startSize=0;container=1;collapsible=0;childLayout=tableLayout;fontSize=22;" vertex="1" parent="1">
                    <mxGeometry x="50" y="300" width="210" height="120" as="geometry"/>
                </mxCell>
                <mxCell id="W6SSFm2GU63rledz_CJb-3" value="" style="shape=tableRow;horizontal=0;startSize=0;swimlaneHead=0;swimlaneBody=0;top=0;left=0;bottom=0;right=0;collapsible=0;dropTarget=0;fillColor=none;points=[[0,0.5],[1,0.5]];portConstraint=eastwest;fontSize=22;" vertex="1" parent="W6SSFm2GU63rledz_CJb-2">
                    <mxGeometry width="210" height="40" as="geometry"/>
                </mxCell>
                <mxCell id="W6SSFm2GU63rledz_CJb-5" value="VLAN Database" style="shape=partialRectangle;html=1;whiteSpace=wrap;connectable=0;overflow=hidden;fillColor=none;top=0;left=0;bottom=0;right=0;pointerEvents=1;fontSize=22;" vertex="1" parent="W6SSFm2GU63rledz_CJb-3">
                    <mxGeometry width="210" height="40" as="geometry">
                        <mxRectangle width="210" height="40" as="alternateBounds"/>
                    </mxGeometry>
                </mxCell>
                <mxCell id="W6SSFm2GU63rledz_CJb-15" style="shape=tableRow;horizontal=0;startSize=0;swimlaneHead=0;swimlaneBody=0;top=0;left=0;bottom=0;right=0;collapsible=0;dropTarget=0;fillColor=none;points=[[0,0.5],[1,0.5]];portConstraint=eastwest;fontSize=22;" vertex="1" parent="W6SSFm2GU63rledz_CJb-2">
                    <mxGeometry y="40" width="210" height="40" as="geometry"/>
                </mxCell>
                <mxCell id="W6SSFm2GU63rledz_CJb-16" value="3- Purchase" style="shape=partialRectangle;html=1;whiteSpace=wrap;connectable=0;overflow=hidden;fillColor=none;top=0;left=0;bottom=0;right=0;pointerEvents=1;fontSize=22;align=left;" vertex="1" parent="W6SSFm2GU63rledz_CJb-15">
                    <mxGeometry width="210" height="40" as="geometry">
                        <mxRectangle width="210" height="40" as="alternateBounds"/>
                    </mxGeometry>
                </mxCell>
                <mxCell id="W6SSFm2GU63rledz_CJb-6" value="" style="shape=tableRow;horizontal=0;startSize=0;swimlaneHead=0;swimlaneBody=0;top=0;left=0;bottom=0;right=0;collapsible=0;dropTarget=0;fillColor=none;points=[[0,0.5],[1,0.5]];portConstraint=eastwest;fontSize=22;" vertex="1" parent="W6SSFm2GU63rledz_CJb-2">
                    <mxGeometry y="80" width="210" height="40" as="geometry"/>
                </mxCell>
                <mxCell id="W6SSFm2GU63rledz_CJb-8" value="2 - Sales" style="shape=partialRectangle;html=1;whiteSpace=wrap;connectable=0;overflow=hidden;fillColor=none;top=0;left=0;bottom=0;right=0;pointerEvents=1;fontSize=22;align=left;" vertex="1" parent="W6SSFm2GU63rledz_CJb-6">
                    <mxGeometry width="210" height="40" as="geometry">
                        <mxRectangle width="210" height="40" as="alternateBounds"/>
                    </mxGeometry>
                </mxCell>
                <mxCell id="W6SSFm2GU63rledz_CJb-24" style="edgeStyle=none;html=1;strokeWidth=6;fontSize=22;endArrow=none;endFill=0;" edge="1" parent="1" source="W6SSFm2GU63rledz_CJb-18" target="W6SSFm2GU63rledz_CJb-20">
                    <mxGeometry relative="1" as="geometry"/>
                </mxCell>
                <mxCell id="W6SSFm2GU63rledz_CJb-18" value="SW1" style="whiteSpace=wrap;html=1;fontSize=33;fontStyle=1" vertex="1" parent="1">
                    <mxGeometry x="250" y="554" width="320" height="176" as="geometry"/>
                </mxCell>
                <mxCell id="W6SSFm2GU63rledz_CJb-19" value="SW4" style="whiteSpace=wrap;html=1;fontSize=33;fontStyle=1" vertex="1" parent="1">
                    <mxGeometry x="245" y="1450" width="320" height="176" as="geometry"/>
                </mxCell>
                <mxCell id="W6SSFm2GU63rledz_CJb-25" style="edgeStyle=none;html=1;strokeWidth=6;fontSize=22;endArrow=none;endFill=0;" edge="1" parent="1" source="W6SSFm2GU63rledz_CJb-20" target="W6SSFm2GU63rledz_CJb-21">
                    <mxGeometry relative="1" as="geometry"/>
                </mxCell>
                <mxCell id="W6SSFm2GU63rledz_CJb-20" value="SW2" style="whiteSpace=wrap;html=1;fontSize=33;fontStyle=1" vertex="1" parent="1">
                    <mxGeometry x="250" y="850" width="320" height="176" as="geometry"/>
                </mxCell>
                <mxCell id="W6SSFm2GU63rledz_CJb-26" style="edgeStyle=none;html=1;strokeWidth=6;fontSize=22;endArrow=none;endFill=0;" edge="1" parent="1" source="W6SSFm2GU63rledz_CJb-21" target="W6SSFm2GU63rledz_CJb-19">
                    <mxGeometry relative="1" as="geometry"/>
                </mxCell>
                <mxCell id="W6SSFm2GU63rledz_CJb-21" value="SW3" style="whiteSpace=wrap;html=1;fontSize=33;fontStyle=1" vertex="1" parent="1">
                    <mxGeometry x="245" y="1130" width="320" height="176" as="geometry"/>
                </mxCell>
                <mxCell id="W6SSFm2GU63rledz_CJb-23" style="edgeStyle=none;html=1;strokeWidth=6;fontSize=22;endArrow=none;endFill=0;" edge="1" parent="1" source="W6SSFm2GU63rledz_CJb-27" target="W6SSFm2GU63rledz_CJb-18">
                    <mxGeometry relative="1" as="geometry"/>
                </mxCell>
                <mxCell id="W6SSFm2GU63rledz_CJb-28" value="SW0" style="text;strokeColor=none;align=center;fillColor=none;html=1;verticalAlign=middle;whiteSpace=wrap;rounded=0;fontSize=33;fontStyle=1" vertex="1" parent="1">
                    <mxGeometry y="230" width="60" height="30" as="geometry"/>
                </mxCell>
                <mxCell id="W6SSFm2GU63rledz_CJb-29" value="" style="whiteSpace=wrap;html=1;fontSize=33;" vertex="1" parent="1">
                    <mxGeometry x="750" y="810" width="40" height="60" as="geometry"/>
                </mxCell>
                <mxCell id="W6SSFm2GU63rledz_CJb-30" value="" style="whiteSpace=wrap;html=1;fontSize=33;" vertex="1" parent="1">
                    <mxGeometry x="-30" y="900" width="40" height="60" as="geometry"/>
                </mxCell>
                <mxCell id="W6SSFm2GU63rledz_CJb-31" value="" style="whiteSpace=wrap;html=1;fontSize=33;" vertex="1" parent="1">
                    <mxGeometry x="-30" y="810" width="40" height="60" as="geometry"/>
                </mxCell>
                <mxCell id="W6SSFm2GU63rledz_CJb-32" value="" style="whiteSpace=wrap;html=1;fontSize=33;" vertex="1" parent="1">
                    <mxGeometry x="750" y="660" width="40" height="60" as="geometry"/>
                </mxCell>
                <mxCell id="W6SSFm2GU63rledz_CJb-33" value="" style="whiteSpace=wrap;html=1;fontSize=33;" vertex="1" parent="1">
                    <mxGeometry x="750" y="554" width="40" height="60" as="geometry"/>
                </mxCell>
                <mxCell id="W6SSFm2GU63rledz_CJb-34" value="" style="whiteSpace=wrap;html=1;fontSize=33;" vertex="1" parent="1">
                    <mxGeometry x="-30" y="650" width="40" height="60" as="geometry"/>
                </mxCell>
                <mxCell id="W6SSFm2GU63rledz_CJb-35" value="" style="whiteSpace=wrap;html=1;fontSize=33;" vertex="1" parent="1">
                    <mxGeometry x="-30" y="560" width="40" height="60" as="geometry"/>
                </mxCell>
            </root>
        </mxGraphModel>
    </diagram>
    <diagram id="n5--hoKJEO76NP7blD8U" name="Page-8">
        <mxGraphModel dx="1156" dy="721" grid="1" gridSize="10" guides="1" tooltips="1" connect="1" arrows="1" fold="1" page="1" pageScale="1" pageWidth="827" pageHeight="1169" math="0" shadow="0">
            <root>
                <mxCell id="0"/>
                <mxCell id="1" parent="0"/>
            </root>
        </mxGraphModel>
    </diagram>
</mxfile>